<svg width="40" height="28" fill="none" xmlns="http://www.w3.org/2000/svg"><rect width="40" height="28" rx="6" fill="#8FCFF5"/><g clip-path="url(#a)" transform="translate(0, -6)"><path d="M27.5 12.5h-15a2.567 2.567 0 0 0-2.5 2.625v9.75a2.566 2.566 0 0 0 2.5 2.625h15a2.567 2.567 0 0 0 2.5-2.625v-9.75a2.566 2.566 0 0 0-2.5-2.625Zm-.716 12.75h-1.425a1.125 1.125 0 0 1 0-2.25h1.424a1.125 1.125 0 1 1 0 2.25Zm1.075-7.125a1.099 1.099 0 0 1-1.076 1.125H13.217a1.099 1.099 0 0 1-1.075-1.125v-.75a1.099 1.099 0 0 1 1.075-1.125h13.566a1.099 1.099 0 0 1 1.075 1.125v.75Z" fill="#fff"/></g><defs><clipPath id="a"><path fill="#fff" transform="translate(10 10)" d="M0 0h20v20H0z"/></clipPath></defs></svg>