<svg width="40" height="28" fill="none" xmlns="http://www.w3.org/2000/svg"><g filter="url(#a)"><rect x=".5" y=".5" width="39" height="27" rx="5.5" fill="#fff" stroke="#D9E0E8"/><g transform="translate(0, -6)" clip-path="url(#b)"><path d="M13.35 29.96v-1.2c0-.45-.29-.75-.78-.75a.82.82 0 0 0-.7.34.73.73 0 0 0-.67-.34c-.2 0-.4.06-.57.28v-.24h-.43v1.91h.43v-1.05c0-.34.18-.5.47-.5s.43.18.43.5v1.05h.44v-1.05c0-.34.2-.5.47-.5.29 0 .43.18.43.5v1.05h.48Zm6.41-1.91h-.7v-.58h-.43v.58h-.4v.38h.4v.87c0 .44.18.7.68.7.19 0 .37-.05.53-.14l-.12-.36a.7.7 0 0 1-.37.1c-.2 0-.3-.12-.3-.32v-.85h.71v-.38Zm3.67-.04a.59.59 0 0 0-.51.28v-.24h-.44v1.9h.44v-1.07c0-.32.14-.5.41-.5.1 0 .18.02.27.04l.12-.4c-.1-.01-.19-.02-.29-.01Zm-5.54.2c-.21-.14-.5-.2-.8-.2-.5 0-.83.24-.83.61 0 .32.25.5.68.56l.2.02c.23.04.36.1.36.2 0 .14-.17.24-.46.24-.23 0-.47-.07-.66-.2l-.2.32c.22.16.53.24.84.24.58 0 .9-.26.9-.62 0-.34-.26-.52-.67-.58l-.2-.02c-.2-.02-.34-.06-.34-.18 0-.14.15-.21.37-.21.25 0 .5.1.62.16l.19-.34Zm11.5-.2a.59.59 0 0 0-.52.28v-.24h-.43v1.9h.43v-1.07c0-.32.15-.5.42-.5.09 0 .18.02.27.04l.12-.4-.29-.01Zm-5.52 1c0 .57.4.99 1.05.99.29 0 .5-.06.7-.22l-.2-.34a.84.84 0 0 1-.52.18c-.35 0-.6-.24-.6-.62 0-.35.25-.6.6-.61.18 0 .35.06.51.18l.2-.34c-.2-.16-.4-.22-.7-.22-.63 0-1.04.42-1.04 1Zm4 0v-.96h-.44v.24a.76.76 0 0 0-.62-.28.97.97 0 0 0-.99 1c0 .57.44.99 1 .99.28 0 .49-.1.61-.28v.24h.43V29Zm-1.6 0c0-.34.23-.62.6-.62.36 0 .6.26.6.61a.6.6 0 0 1-.6.62c-.36-.02-.6-.28-.6-.62Zm-5.17-1c-.57 0-.99.4-.99 1 0 .59.42.99 1.01.99.3 0 .58-.08.8-.26l-.2-.3a1 1 0 0 1-.57.2c-.27 0-.54-.12-.6-.46H22v-.16c.02-.61-.35-1.01-.9-1.01Zm0 .36c.27 0 .46.16.5.45h-1.03a.51.51 0 0 1 .53-.45Zm10.74.63v-1.7h-.43v.99a.76.76 0 0 0-.62-.28.97.97 0 0 0-.99 1c0 .57.44.99 1 .99.28 0 .49-.1.61-.28v.24h.43V29Zm-1.58 0c0-.33.22-.61.6-.61.35 0 .6.26.6.61a.6.6 0 0 1-.6.62c-.38-.02-.6-.28-.6-.62Zm-14.48 0v-.95h-.43v.24a.76.76 0 0 0-.62-.28.97.97 0 0 0-.99 1c0 .57.43.99 1 .99.28 0 .49-.1.61-.28v.24h.43V29Zm-1.6 0c0-.33.22-.61.6-.61.34 0 .6.26.6.61a.6.6 0 0 1-.6.62c-.38-.02-.6-.28-.6-.62Z" fill="#000"/><path d="M24.24 13.53h-6.5V24.8h6.5V13.53Z" fill="#FF5A00"/><path d="M18.18 19.17A7.1 7.1 0 0 1 21 13.53 7.55 7.55 0 0 0 16.42 12 7.3 7.3 0 0 0 9 19.17a7.3 7.3 0 0 0 7.42 7.17c1.66 0 3.28-.54 4.58-1.54a7.07 7.07 0 0 1-2.82-5.63Z" fill="#EB001B"/><path d="M33 19.17a7.3 7.3 0 0 1-7.42 7.17A7.55 7.55 0 0 1 21 24.8a7.04 7.04 0 0 0 0-11.27c1.3-1 2.92-1.53 4.58-1.53A7.3 7.3 0 0 1 33 19.17Z" fill="#F79E1B"/></g></g><defs><clipPath id="b"><path fill="#fff" transform="translate(9 12)" d="M0 0h24v18H0z"/></clipPath><filter id="a" x="0" y="0" width="42" height="42" filterUnits="userSpaceOnUse" color-interpolation-filters="sRGB"><feFlood flood-opacity="0" result="BackgroundImageFix"/><feColorMatrix in="SourceAlpha" values="0 0 0 0 0 0 0 0 0 0 0 0 0 0 0 0 0 0 127 0" result="hardAlpha"/><feOffset dy="1"/><feGaussianBlur stdDeviation=".5"/><feComposite in2="hardAlpha" operator="out"/><feColorMatrix values="0 0 0 0 0.701961 0 0 0 0 0.745098 0 0 0 0 0.8 0 0 0 0.25 0"/><feBlend in2="BackgroundImageFix" result="effect1_dropShadow_820_5559"/><feBlend in="SourceGraphic" in2="effect1_dropShadow_820_5559" result="shape"/></filter></defs></svg>